<?xml version="1.0" standalone="no"?><!DOCTYPE svg PUBLIC "-//W3C//DTD SVG 1.1//EN" "http://www.w3.org/Graphics/SVG/1.1/DTD/svg11.dtd"><svg t="1677679349880" class="icon" viewBox="0 0 1024 1024" version="1.1" xmlns="http://www.w3.org/2000/svg" p-id="5401" xmlns:xlink="http://www.w3.org/1999/xlink" width="16" height="16"><path d="M896 311.466667h-81.066667V42.666667c0-25.6-17.066667-42.666667-42.666666-42.666667H42.666667C17.066667 0 0 17.066667 0 42.666667v938.666666c0 25.6 17.066667 42.666667 42.666667 42.666667h853.333333c72.533333 0 128-55.466667 128-128V439.466667c0-68.266667-55.466667-128-128-128zM85.333333 85.333333h644.266667v810.666667c0 17.066667 4.266667 29.866667 8.533333 42.666667H85.333333V85.333333z m853.333334 810.666667c0 25.6-17.066667 42.666667-42.666667 42.666667h-34.133333c-25.6 0-42.666667-17.066667-42.666667-42.666667V396.8H896c25.6 0 42.666667 17.066667 42.666667 42.666667V896z" fill="#374151" p-id="5402"></path><path d="M614.4 371.2H196.266667c-25.6 0-42.666667-17.066667-42.666667-42.666667s17.066667-42.666667 42.666667-42.666666h418.133333c25.6 0 42.666667 17.066667 42.666667 42.666666s-17.066667 42.666667-42.666667 42.666667zM614.4 571.733333H196.266667c-25.6 0-42.666667-17.066667-42.666667-42.666666s17.066667-42.666667 42.666667-42.666667h418.133333c25.6 0 42.666667 17.066667 42.666667 42.666667s-17.066667 42.666667-42.666667 42.666666zM375.466667 768H196.266667c-25.6 0-42.666667-17.066667-42.666667-42.666667s17.066667-42.666667 42.666667-42.666666h174.933333c25.6 0 42.666667 17.066667 42.666667 42.666666s-17.066667 42.666667-38.4 42.666667z" fill="#374151" p-id="5403"></path></svg>