<?xml version="1.0" encoding="utf-8"?>
<!-- Generator: Adobe Illustrator 22.0.0, SVG Export Plug-In . SVG Version: 6.00 Build 0)  -->
<svg version="1.1" id="图层_1" xmlns="http://www.w3.org/2000/svg" xmlns:xlink="http://www.w3.org/1999/xlink" x="0px" y="0px"
	 viewBox="0 0 278 48" style="enable-background:new 0 0 278 48;" xml:space="preserve">
<style type="text/css">
	.st0{fill:#4961F0;}
	.st1{fill:#98EBFB;}
	.st2{fill:#FFFFFF;}
</style>
<g>
	<g>
		<path class="st0" d="M58.5,20c0-0.6-0.5-1.1-1.1-1.1h-0.6v-1.6H61c1.1,0,1.9,0.9,1.9,1.9V35c0,0.6,0.5,1.1,1.1,1.1h0.6v1.6h-4.1
			c-1.1,0-1.9-0.8-1.9-1.9L58.5,20L58.5,20z M58,15.7l-0.9-5.2h4.6l0.9,5.2H58z M67.8,37.8V25.2h-3.2v-1.7h3.2V13h-3v-1.7h13.9
			c1.1,0,1.9,0.9,1.9,2V35c0,0.6,0.5,1.1,1.1,1.1h0.9v1.7h-4.4c-1,0-1.9-0.8-1.9-1.9V14.1c0-0.6-0.5-1.1-1.1-1.1h-3.1v10.5h3.2v1.7
			h-3.2v12.6C72.1,37.8,67.8,37.8,67.8,37.8z"/>
		<path class="st0" d="M82.9,11h16c1,0,1.8,0.8,1.8,1.9v22.2c0,0.6,0.5,1.1,1,1.1h6.8v1.6H98.4c-1,0-1.8-0.9-1.8-1.9V13.7
			c0-0.6-0.5-1.1-1-1.1H82.9V11z M101.4,20.9c1.1-2.4,1.7-4.9,2.2-7.4h4.1c-0.4,2.6-1,5-2,7.4H101.4z M105.6,22.6l2.2,9h-4.1l-2.2-9
			H105.6z"/>
		<path class="st0" d="M111.2,18.7h4.6c0.5-1.5,1-3,1.3-4.7h-1.2c-0.3,1-0.7,1.9-1.1,2.8h-3.6c0.9-2.1,1.5-4.1,1.8-6.3h3.6
			c-0.1,0.6-0.2,1.2-0.4,1.8h8.4V14H121c-0.3,1.7-0.6,3.2-1.1,4.7h4.7v1.6h-3.4c0.7,2,1.8,3.9,3.4,5.8H120c-0.8-0.9-1.4-2-2-3.1
			c-0.7,1.2-1.5,2.2-2.4,3.1H111c1.8-2,3-3.9,3.9-5.8H111v-1.6H111.2z M112.5,29.3c0-1.1,0.8-1.9,1.8-1.9h19.4c1,0,1.8,0.9,1.8,1.9
			v6.5c0,1-0.8,1.9-1.8,1.9h-19.4c-1,0-1.8-0.9-1.8-1.9C112.5,35.8,112.5,29.3,112.5,29.3z M116.6,31.7h14.8v-1.6
			c0-0.6-0.5-1.1-1-1.1h-12.7c-0.6,0-1,0.5-1,1.1L116.6,31.7L116.6,31.7z M131.4,33.3h-14.8v1.6c0,0.6,0.5,1.1,1,1.1h12.7
			c0.6,0,1-0.5,1-1.1v-1.6H131.4z M125.7,13.8c0-1,0.8-1.9,1.8-1.9h7.6c1,0,1.8,0.9,1.8,1.9v10.5c0,1-0.8,1.9-1.8,1.9h-7.6
			c-1,0-1.8-0.9-1.8-1.9C125.7,24.3,125.7,13.8,125.7,13.8z M132.7,14c0-0.3-0.2-0.5-0.5-0.5h-1.9c-0.3,0-0.5,0.3-0.5,0.5v10
			c0,0.3,0.2,0.5,0.5,0.5h1.9c0.3,0,0.5-0.2,0.5-0.5V14z"/>
		<path class="st0" d="M142.2,10.6h4.2l-2.5,8c-0.1,0.2,0,0.4,0.1,0.5c0.1,0.2,0.2,0.2,0.4,0.2h3.6c0.2,0,0.3-0.1,0.4-0.2
			c0.1-0.1,0.1-0.3,0.1-0.5l-1.2-4.3h4.1l1.5,5.3c0.1,0.3,0.1,0.7-0.2,1c-0.2,0.3-0.5,0.4-0.8,0.4h-11.5c-0.3,0-0.7-0.1-0.8-0.4
			c-0.2-0.3-0.2-0.7-0.1-1L142.2,10.6z M139.6,37.8V24c0-1.1,0.8-1.9,1.8-1.9h9.6c1,0,1.8,0.8,1.8,1.9v11.9c0,1-0.8,1.9-1.8,1.9
			h-4.3v-1.6h1c0.6,0,1-0.5,1-1.1v-1.4h-5v4.1C143.7,37.8,139.6,37.8,139.6,37.8z M143.7,27.2h5v-2.4c0-0.6-0.5-1.1-1-1.1h-2.9
			c-0.6,0-1,0.5-1,1.1v2.4H143.7z M143.7,32h5v-3.2h-5V32z M165,23.4h-9.3c-1,0-1.8-0.8-1.8-1.9V10.6h4.1v10.1c0,0.6,0.5,1.1,1,1.1
			h6V23.4z M165,37.6h-9.3c-1,0-1.8-0.9-1.8-1.9v-11h4.1v10.1c0,0.6,0.5,1.1,1,1.1h6V37.6z M158.3,18c1.4-2.2,2.3-3.9,3.1-6.1h3.6
			c-0.7,2.1-1.6,4.1-2.9,6.1H158.3z M158.3,32.2c1.4-2.2,2.3-3.9,3.1-6h3.6c-0.7,2.1-1.6,4.1-2.9,6H158.3z"/>
		<path class="st0" d="M167.6,17.6h4.5v-4.2h-4.3v-1.7h6.3c1.2,0,1.6-0.3,2.1-1.3h3.7c-0.4,1.9-1.1,2.9-3,2.9h-1.4v4.2h4.5v1.6h-1.5
			l1.5,6.2h-3l-1.5-6.1v6.1h-3.3v-5.8c-0.4,2-0.8,3.9-1.5,5.8h-3c0.7-2.1,1.2-4.1,1.5-6.2h-1.5v-1.5H167.6z M167.8,28
			c0-1.1,0.7-1.9,1.5-1.9h9c0.8,0,1.5,0.9,1.5,1.9v7.7c0,1.1-0.7,1.9-1.5,1.9h-9c-0.8,0-1.5-0.9-1.5-1.9V28z M168.5,17.1L168,14h3
			l0.5,3.1H168.5z M171,31.1h1.4v-3.3h-0.7c-0.4,0-0.7,0.4-0.7,0.9V31.1z M172.3,36.1v-3.3H171v2.5c0,0.4,0.3,0.8,0.7,0.8H172.3z
			 M176.9,28.6c0-0.5-0.3-0.9-0.7-0.9h-0.7V31h1.4V28.6z M176.2,36.1c0.4,0,0.7-0.4,0.7-0.8v-2.5h-1.4v3.3H176.2z M176,17.1l0.5-3.1
			h3l-0.5,3.1H176z M181.7,36.2h1.1c0.4,0,0.8-0.5,0.8-1.1V14.6c0-0.6-0.4-1.1-0.8-1.1h-2.6v-1.6h5c0.7,0,1.3,0.9,1.3,1.9V36
			c0,1-0.6,1.9-1.3,1.9h-3.6v-1.7H181.7z M180.3,34.7c0.4-3.5,0.5-6.7,0.6-10.1h2.3c0,3.5-0.2,6.9-0.6,10.1H180.3z M180.8,22.8
			l-0.3-7.3h2.3l0.3,7.3H180.8z M188.4,36.2h1.1c0.4,0,0.8-0.5,0.8-1.1V14.6c0-0.6-0.3-1.1-0.8-1.1h-2.6v-1.6h5
			c0.7,0,1.3,0.9,1.3,1.9v22.1c0,1-0.6,1.9-1.3,1.9h-3.6v-1.6H188.4z M186.9,34.7c0.4-3.5,0.5-6.7,0.5-10.1h2.3
			c-0.1,3.5-0.2,6.9-0.6,10.1H186.9z M187.4,22.8l-0.3-7.3h2.3l0.3,7.3H187.4z"/>
		<path class="st0" d="M197.5,20c0-0.6-0.5-1.1-1.1-1.1h-0.6v-1.6h4c1,0,1.9,0.9,1.9,1.9V35c0,0.6,0.5,1.1,1.1,1.1h0.5v1.6h-4
			c-1,0-1.8-0.8-1.8-1.9L197.5,20L197.5,20z M196.9,15.7l-0.9-5.2h4.4l0.8,5.2H196.9z M209.7,13.8c0.8,1.1,1.8,2.1,3,2.9
			c1.5-1.1,2.8-2.4,3.8-3.9h-12.2v-1.6h16.2c0.3,0,0.6,0.1,0.8,0.4c0.1,0.3,0.1,0.6,0,0.8c-1.4,2.5-3.3,4.5-5.4,6.2
			c1.8,0.9,3.7,1.5,5.6,2v3.3c-3.1-0.5-6.2-1.5-8.9-3.1c-2.6,1.5-5.5,2.5-8.4,3v-3.2c1.8-0.4,3.6-1.1,5.2-1.9
			c-1.7-1.4-3.3-3.1-4.5-5h4.8V13.8z M210.8,37.8v-4.2h-6.5V32h6.5v-4.1h-5.7v-1.6h5.7v-2.8h4.2v2.8h5.8v1.6H215V32h6.5v1.6H215v4.2
			H210.8z"/>
		<path class="st0" d="M225.3,11.2h23.3v1.6H239v13h10.8v1.6H239v10.3h-4.1V27.5H224v-1.6h10.8v-13h-9.6v-1.7H225.3z M228.4,24.3
			c-1.2-3.1-2.1-6.3-2.6-9.6h4.1c0.6,3.3,1.5,6.4,2.6,9.6H228.4z M241.2,24.3c1.1-3.1,2-6.3,2.6-9.6h4.1c-0.5,3.2-1.4,6.4-2.6,9.6
			H241.2z"/>
		<path class="st0" d="M258.5,10.7h4.3l-5.3,9.5c-0.1,0.2-0.1,0.4,0,0.5c0.1,0.2,0.2,0.3,0.4,0.3h14.7c0.2,0,0.4-0.1,0.5-0.3
			c0.1-0.1,0.1-0.3,0-0.5l-2.8-6.1h4.2l3,6.6c0.2,0.5,0.2,0.9-0.1,1.3c-0.2,0.4-0.6,0.6-1.1,0.6h-22.4c-0.5,0-0.9-0.3-1.1-0.7
			c-0.2-0.5-0.2-1,0-1.4L258.5,10.7z M253.6,26.6c0-1.1,0.8-1.9,1.8-1.9h19.4c1,0,1.8,0.9,1.8,1.9v9.2c0,1-0.8,1.9-1.8,1.9h-19.4
			c-1,0-1.8-0.9-1.8-1.9L253.6,26.6L253.6,26.6z M272.5,27.4c0-0.6-0.5-1.1-1-1.1h-12.8c-0.6,0-1,0.5-1,1.1V35c0,0.6,0.5,1.1,1,1.1
			h12.8c0.6,0,1-0.5,1-1.1V27.4z"/>
	</g>
</g>
<path class="st0" d="M43.2,7.3h-5.7c0,0,0,0,0,0H22.7c-3.3,0-6,2.7-6,6v6.4l-5.9,7.8h5.9v7.8c0,3.3,2.7,6,6,6h15.9
	c0.4,0,0.8,0,1.2-0.1l7.5,6.9V35.3v-4.6v-8.4v-3.6v-7.5C47.2,9.1,45.4,7.3,43.2,7.3z"/>
<path class="st1" d="M30.6,12.4V6c0-3.3-2.7-6-6-6H6.1c-3.3,0-6,2.7-6,6v17.5V28v12.7l7.5-6.9C8,33.9,8.4,34,8.8,34h15.9
	c3.3,0,6-2.7,6-6v-7.8h5.9L30.6,12.4z"/>
<path class="st2" d="M22.7,7.3c-3.3,0-6,2.7-6,6v6.4l-5.9,7.8h5.9V34h7.9c3.3,0,6-2.7,6-6v-7.8h5.9l-5.9-7.8V7.3H22.7z"/>
</svg>
